<svg xmlns="http://www.w3.org/2000/svg" width="126.335" height="40.2" viewBox="0 0 126.335 40.2"><defs><style>.a{fill:#d33833;}.a,.d,.e,.f,.g,.h,.j,.k,.n,.o,.p,.q{fill-rule:evenodd;}.b,.n{fill:#ef3d3a;}.c,.o{fill:#231f20;}.d{fill:#f0d6b7;}.e{fill:#335061;}.f{fill:#6d6b6d;}.g{fill:#dcd9d8;}.h,.i{fill:#f7e4cd;}.j{fill:#49728b;}.k,.l,.r{fill:#fff;}.m{fill:none;stroke:#d33833;stroke-width:2.5px;}.p{fill:#81b0c4;}.q{fill:#1d1919;}.r{font-size:22px;font-family:Georgia-Bold, Georgia;font-weight:700;}</style></defs><g transform="translate(0 311.855)"><g transform="translate(0 -311.855)"><path class="a" d="M31.6-259.035a14.263,14.263,0,0,1-14.1,14.421A14.263,14.263,0,0,1,3.4-259.035a14.263,14.263,0,0,1,14.1-14.422,14.263,14.263,0,0,1,14.1,14.422" transform="translate(-2.96 278.406)"/><path class="b" d="M2.774-249.292S1.753-264.331,15.61-264.761l-.967-1.611-7.519,2.524-2.148,2.471-1.88,3.6-1.074,4.189.322,2.793" transform="translate(-1.761 272.235)"/><path class="c" d="M4.88-271.467a14.105,14.105,0,0,0-4,9.892h0a14.1,14.1,0,0,0,4,9.891h0a13.459,13.459,0,0,0,9.656,4.092h0a13.459,13.459,0,0,0,9.657-4.092h0a14.1,14.1,0,0,0,4-9.891h0a14.106,14.106,0,0,0-4-9.892h0a13.462,13.462,0,0,0-9.657-4.092h0a13.462,13.462,0,0,0-9.656,4.092Zm-.626,20.395A14.982,14.982,0,0,1,0-261.576H0a14.982,14.982,0,0,1,4.254-10.5h0a14.337,14.337,0,0,1,10.283-4.356h0a14.336,14.336,0,0,1,10.283,4.356h0a14.98,14.98,0,0,1,4.254,10.5h0a14.979,14.979,0,0,1-4.254,10.5h0a14.338,14.338,0,0,1-10.283,4.356h0a14.339,14.339,0,0,1-10.283-4.356h0" transform="translate(0 281.001)"/><path class="d" d="M56.459-288.358l-2.149.322-2.9.322-1.88.054-1.826-.054-1.4-.43-1.235-1.343-.967-2.739-.215-.591-1.289-.43-.752-1.235-.537-1.772.591-1.558,1.4-.483,1.128.537.537,1.182.645-.107.215-.268-.215-1.235-.054-1.558.322-2.148-.013-1.227.979-1.566,1.719-1.235,3.008-1.289,3.33.483,2.9,2.095,1.343,2.148L60-300.926l.215,3.867-.645,3.33-1.182,2.954-1.128,1.558" transform="translate(-35.987 307.809)"/><path class="e" d="M42.292-156.75l-7.681.322v1.289l.645,4.512-.322.376-5.371-1.826-.376-.645-.537-6.069-1.235-3.652-.269-.859,4.3-2.954,1.343-.537,1.182,1.45,1.02.913,1.182.376.537.161.645,2.793.483.591,1.235-.43-.859,1.665,4.673,2.2-.591.322" transform="translate(-23.647 185.493)"/><path class="f" d="M44.443-294.544l1.4-.483,1.128.537.537,1.182.645-.107.161-.645-.322-1.235.322-2.954-.269-1.611.967-1.128,2.095-1.665-.591-.806-2.954,1.45-1.235.967-.7,1.5-1.074,1.45-.322,1.719.215,1.826" transform="translate(-38.527 304.542)"/><path class="g" d="M54.631-298.373s.806-1.987,4.028-2.954.161-.7.161-.7l-3.491,1.343-1.343,1.343-.591,1.074,1.235-.107" transform="translate(-46.513 303.322)"/><path class="g" d="M45.034-270.6s-1.128-3.76,3.169-4.3l-.161-.645-2.954.7-.859,2.793.215,1.826.591-.376" transform="translate(-38.527 280.225)"/><path class="h" d="M63.812-203.065l.7-.681a.453.453,0,0,1,.371.413c.054.376.215,3.76,2.524,5.586.211.167-1.719-.269-1.719-.269L63.973-200.7" transform="translate(-55.586 217.682)"/><path class="h" d="M140.463-216.579s.125-1.628.564-1.5a.6.6,0,0,1,.438.564s-1.065.689-1,.939" transform="translate(-122.354 230.175)"/><path class="i" d="M168.5-252.626s-.885.187-.967.967.967.161,1.128.107" transform="translate(-145.932 260.261)"/><path class="i" d="M116.66-252.209s-1.182.161-1.182.913,1.343.7,1.719.376" transform="translate(-100.593 259.898)"/><path class="h" d="M44.387-235.652s-2.041-1.235-2.256-.054-.7,2.041.322,3.276l-.7-.215-.645-1.665-.215-1.611,1.235-1.289,1.4.107.806.645.054.806" transform="translate(-35.624 246.832)"/><path class="h" d="M75.11-303.055s.913-4.727,5.532-5.64c3.8-.752,5.8.161,6.553,1.02,0,0-3.384-4.028-6.606-2.793s-5.586,3.491-5.532,4.941a23.607,23.607,0,0,1,.054,2.471" transform="translate(-65.38 310.851)"/><path class="h" d="M161.258-283.046s-1.558-.054-1.611,1.343a1.068,1.068,0,0,0,.107.43s1.236-1.4,1.987-.645" transform="translate(-139.067 286.76)"/><path class="h" d="M98.352-276.86s-.268-2.144-2.1-.9c-1.182.806-1.074,1.934-.859,2.148s.156.648.32.351.11-1.264.7-1.532,1.559-.569,1.935-.069" transform="translate(-82.982 282.492)"/><path class="j" d="M33.967-165.705l-5.049,2.256s2.095,8.325,1.02,10.9l-.752-.268-.054-3.169L27.737-162l-.591-1.665,5.264-3.545,1.558,1.5" transform="translate(-23.647 185.855)"/><path class="j" d="M82.4-119.822l.716.874v3.223h-.859s-.107-2.256-.107-2.524.107-1.235.107-1.235" transform="translate(-71.557 144.576)"/><path class="j" d="M67.9-84.292l-2.417.107.7.483,1.719.269" transform="translate(-57.038 113.627)"/><path class="e" d="M148.4-88.823l1.987-.054.483,4.941-2.041.268-.43-5.156" transform="translate(-129.267 117.62)"/><path class="e" d="M152.563-162.139l3.008-.161s1.235-3.115,1.235-3.276,1.074-4.512,1.074-4.512l-2.417-2.524-.483-.43-1.289,1.289v5l-1.128,4.619" transform="translate(-132.896 190.936)"/><path class="j" d="M150.276-91.376,148.4-91l.268,1.5c.7.322,1.88-.537,1.88-.537" transform="translate(-129.267 119.798)"/><path class="j" d="M163.4-171.915l3.76,2.793.107-1.289-2.847-2.632-1.02,1.128" transform="translate(-142.333 190.936)"/><path class="k" d="M86.819-77.878l-1.112-4.512-.553-3.329-.091-2.471,5.033-.268h3.131l-.285,5.64.483,4.351-.054.806-4.082.322-2.471-.537" transform="translate(-74.097 117.257)"/><path class="g" d="M119.75-91.055a47.506,47.506,0,0,0,.537,9.561,10.261,10.261,0,0,1-3.975,1.289l4.512-.161.537-.322-.645-8.808-.161-1.88" transform="translate(-101.319 119.798)"/><path class="k" d="M164.387-94.161l2.095-.591,3.974-.215.591-1.826-1.074-3.169-1.235-.161-1.719.537-1.649.805-.875-.161-.682.268" transform="translate(-142.696 127.416)"/><path class="g" d="M167.979-87.979a7.866,7.866,0,0,1,1.611-.591L169-91.524l.7-.268s.483,2.793.483,3.115c0,0,3.008.161,3.276.161a4.878,4.878,0,0,0,.483-2.524l.591,1.719.054.967-.859,1.289-.967.215-1.611-.054-.537-.7-1.88.268-.591.215" transform="translate(-146.325 120.16)"/><path class="l" d="M135.272-129.174l-1.182-3.008-1.235-1.772s.268-.752.645-.752h1.235l1.182.43-.107,1.987-.537,3.115" transform="translate(-115.729 157.542)"/><path class="g" d="M134.886-130.925a25.032,25.032,0,0,1-1.5-3.33s.268-.645.645-.483,1.182.591,1.182.591v-1.02l-1.826-.376-1.235.161,2.095,4.941.43.054" transform="translate(-115.112 158.271)"/><path class="l" d="M82.947-158.7l-1.488-.162-1.4-.43v.483l.682.752,2.148.967" transform="translate(-69.742 178.96)"/><path class="g" d="M82.725-153.456a5.936,5.936,0,0,0,2.2.537l.053.644-1.5-.322-.913-.645.161-.215" transform="translate(-71.921 173.875)"/><path class="a" d="M150.165-153.4a10.205,10.205,0,0,1-2.456-.338,7.608,7.608,0,0,1,.031-.8,1.919,1.919,0,0,1,.841-.176,1.464,1.464,0,0,0-.935-.106,1.5,1.5,0,0,0-.155-.493c.512-.183,1.722-1.382,2.4-.985.324.189.462,1.267.487,1.792a1.829,1.829,0,0,1-.217,1.1" transform="translate(-128.48 176.419)"/><path class="m" d="M150.165-153.4a10.205,10.205,0,0,1-2.456-.338,7.608,7.608,0,0,1,.031-.8,1.919,1.919,0,0,1,.841-.176,1.464,1.464,0,0,0-.935-.106,1.5,1.5,0,0,0-.155-.493c.512-.183,1.722-1.382,2.4-.985.324.189.462,1.267.487,1.792A1.829,1.829,0,0,1,150.165-153.4Z" transform="translate(-128.48 176.419)"/><path class="a" d="M107.512-153.3c0,.069-.005.138-.008.208-.285.187-.744.185-1.056.342a2.745,2.745,0,0,1,1.136.287q-.01.261-.02.521a18.543,18.543,0,0,1-1.612,1.224,4.267,4.267,0,0,1-1.618.494c-.175-.041-.191-.257-.26-.462a6.609,6.609,0,0,1-.521-1.794c-.038-.832-.122-2.227.775-2.056a8.014,8.014,0,0,1,2.126.778,2.193,2.193,0,0,0,1.06.459" transform="translate(-90.184 174.825)"/><path class="m" d="M107.512-153.3c0,.069-.005.138-.008.208-.285.187-.744.185-1.056.342a2.745,2.745,0,0,1,1.136.287q-.01.261-.02.521a18.543,18.543,0,0,1-1.612,1.224,4.267,4.267,0,0,1-1.618.494c-.175-.041-.191-.257-.26-.462a6.609,6.609,0,0,1-.521-1.794c-.038-.832-.122-2.227.775-2.056a8.014,8.014,0,0,1,2.126.778A2.193,2.193,0,0,0,107.512-153.3Z" transform="translate(-90.184 174.825)"/><path class="a" d="M137.465-144.966a3.075,3.075,0,0,1-.136-.978c1.209-.806,1.436,1.385.136.978" transform="translate(-119.62 167.488)"/><path class="m" d="M137.465-144.966a3.075,3.075,0,0,1-.136-.978C138.539-146.751,138.766-144.56,137.465-144.966Z" transform="translate(-119.62 167.488)"/><path class="n" d="M146.94-156.066s-.376-.537-.107-.7.537,0,.7-.268,0-.43.054-.752.322-.376.591-.43,1.021-.161,1.128.107l-.322-.967-.645-.215-2.041,1.182-.107.591v1.182" transform="translate(-127.343 178.955)"/><path class="n" d="M101.4-152.11q-.1-1.257-.209-2.513c-.114-1.25.3-1.032,1.384-1.032a2.856,2.856,0,0,1,1.08.322c.293.6-.49.465.337.917.7.381,1.932-.231,1.65-1.078-.158-.188-.823-.059-1.061-.182l-1.259-.653c-.534-.277-1.768-.681-2.337-.294-1.442.981.091,3.431.605,4.455" transform="translate(-87.447 176.772)"/><path class="o" d="M99.7-274.041c-1.464-.341-2.191.613-2.635,1.6-.4-.1-.239-.635-.138-.909a2.486,2.486,0,0,1,2.181-1.55c.371.056.874.4.593.858" transform="translate(-84.333 279.673)"/><path class="o" d="M167.912-255.233l.069,0a15.139,15.139,0,0,0,1.034,2.022c-.28.651-2.117,1.227-2.089.058.4-.174,1.083-.035,1.436-.257a3.985,3.985,0,0,1-.451-1.825" transform="translate(-145.41 262.532)"/><path class="o" d="M117-255.094a6.139,6.139,0,0,0,.862,1.615c.2.2.592.434.4.979a1.241,1.241,0,0,1-.567.471c-.7.206-2.323.043-1.772-.827.577.027,1.352.375,1.783-.044-.331-.529-.921-1.577-.7-2.193" transform="translate(-100.882 262.411)"/><path class="o" d="M143.479-245.411a5.815,5.815,0,0,1-3.942,1.238,1.167,1.167,0,0,1-.151-1.5c.186.32.069.908.587,1,.976.167,2.113-.6,2.815-.864.436-.734-.038-1-.43-1.477-.8-.968-1.881-2.168-1.842-3.618.325-.235.353.359.4.468a13.248,13.248,0,0,0,2.245,3.077c.189.207.5.405.535.542.1.4-.26.874-.218,1.139" transform="translate(-121.238 258.576)"/><path class="o" d="M51.286-227.788c-.329-.188-.408-1.015-.794-1.039-.552-.034-.452,1.074-.449,1.721a2.022,2.022,0,0,1-.168-1.954c-.318-.156-.46.172-.637.288.227-1.648,2.411-.765,2.048.983" transform="translate(-42.891 240.243)"/><path class="o" d="M159.847-204.4a3.023,3.023,0,0,1-2.615,1.985,3.543,3.543,0,0,1,0-.939,7.537,7.537,0,0,0,2.613-1.046" transform="translate(-136.938 218.253)"/><path class="o" d="M124.408-199.721a9.08,9.08,0,0,0,3.84.5,4.355,4.355,0,0,1,.068.941c-1.6.08-3.489-.316-3.908-1.438" transform="translate(-108.371 214.176)"/><path class="o" d="M120.434-192.761c.633,1.589,2.807,1.406,4.641,1.362a.981.981,0,0,1-.473.538,4.653,4.653,0,0,1-3.024-.013,4.138,4.138,0,0,1-1.133-1.261c-.137-.176-.819-.625-.01-.626" transform="translate(-104.571 208.113)"/><path class="p" d="M156.174-129.657a32.39,32.39,0,0,1-2.334,3.7,17.819,17.819,0,0,0,.583-4.289,1.351,1.351,0,0,1,1.751.589" transform="translate(-134.009 153.772)"/><path class="o" d="M187.9-89.326c-.831.166-1.415.974-2.226.922a2.655,2.655,0,0,1,2.226-.922" transform="translate(-161.735 118.011)"/><path class="o" d="M191.184-80.582a12.181,12.181,0,0,1-2.161.125c.325-.5,1.579-.325,2.161-.125" transform="translate(-164.657 110.569)"/><path class="o" d="M191.173-72.584c-.762.017-1.708,0-2.432-.059.428-.46,1.938-.171,2.432.059" transform="translate(-164.411 103.692)"/><path class="g" d="M154.64-46.791a17.9,17.9,0,0,1,.441,2.973,3.113,3.113,0,0,1-1.227.265c-.04-.89-.159-2.251-.123-3.1.277.018.687-.2.909-.139" transform="translate(-133.908 80.969)"/><path class="d" d="M131.491-156.061c-.382.25-.708.561-1.075.828a2.368,2.368,0,0,1-1.857-.524c.01-.038.07-.021.072-.067.872.388,1.98-.158,2.86-.237" transform="translate(-111.987 176.144)"/><path class="p" d="M115.806-124.472c.24-1.038,1.178-1.575,2.03-2.147a17.144,17.144,0,0,1,2,3.937,20.533,20.533,0,0,1-4.034-1.791" transform="translate(-100.878 150.497)"/><path class="o" d="M40.271-277.539c-.036.849.083,2.209.123,3.1a3.113,3.113,0,0,0,1.227-.265,17.9,17.9,0,0,0-.441-2.973C40.957-277.737,40.548-277.521,40.271-277.539Zm-8.784-4.826a44.354,44.354,0,0,0,1.9,9.323,12.356,12.356,0,0,0,6.776.123c-.356-1.709-.2-3.79-.408-5.614-.157-1.371-.077-2.75-.292-4.149A23.228,23.228,0,0,0,31.487-282.365Zm8.53-.3c-.02,1.469.066,2.917.178,4.388.564-.085.947-.141,1.471-.256a31.612,31.612,0,0,0-.5-4.261,3.494,3.494,0,0,0-1.153.129Zm2.861-.237a3.516,3.516,0,0,0-.835,0c.12,1.2.412,2.518.514,3.775a3.5,3.5,0,0,0,.948-.241,7.6,7.6,0,0,0-.628-3.537Zm4.332,3.958a1.862,1.862,0,0,0,1.131-2.286,10.812,10.812,0,0,0-.738-2.5c-.222-.335-.823-.775-1.3-.467-.781.5-2.156.645-2.726,1.25a20.176,20.176,0,0,1,.492,3.461c.975.061,2.176-.268,2.987.081a11.358,11.358,0,0,0-1.791.452,3.734,3.734,0,0,0,1.947.006Zm-7.8-5.1a17.144,17.144,0,0,0-2-3.937c-.852.572-1.791,1.109-2.03,2.147A20.531,20.531,0,0,0,39.41-284.04Zm1.452-4.29a17.819,17.819,0,0,1-.583,4.289,32.39,32.39,0,0,0,2.334-3.7A1.351,1.351,0,0,0,40.862-288.33Zm-1.646-.585c-.334-.036-.617.384-1.051.2-.1.11-.19.229-.291.336.958,1.155,1.394,2.794,2.134,4.151a18.215,18.215,0,0,0,.439-4.155C39.9-288.346,39.6-288.874,39.216-288.915Zm-1.058-1.4a3.075,3.075,0,0,0,.136.978C39.594-288.927,39.367-291.118,38.158-290.312Zm-1.442-.473a8.014,8.014,0,0,0-2.126-.778c-.9-.172-.813,1.224-.775,2.056a6.608,6.608,0,0,0,.521,1.794c.07.2.086.421.26.462a4.267,4.267,0,0,0,1.618-.494,18.549,18.549,0,0,0,1.612-1.224q.01-.261.02-.521a2.744,2.744,0,0,0-1.136-.287c.312-.157.772-.155,1.056-.342,0-.07.006-.139.008-.208A2.192,2.192,0,0,1,36.716-290.785Zm-5.352-.972c-.465.472,1.3,1.116,1.868,1.15,0-.3.17-.58.135-.795A5.949,5.949,0,0,1,31.364-291.757Zm5.729.222c0,.046-.062.029-.072.067a2.368,2.368,0,0,0,1.857.524c.367-.266.693-.578,1.075-.828C39.072-291.694,37.964-291.147,37.092-291.536Zm5.258,1.594c-.025-.524-.163-1.6-.487-1.792-.68-.4-1.89.8-2.4.985a1.5,1.5,0,0,1,.155.493,1.464,1.464,0,0,1,.935.106,1.919,1.919,0,0,0-.841.176,7.606,7.606,0,0,0-.031.8,10.207,10.207,0,0,0,2.456.338A1.829,1.829,0,0,0,42.35-289.941ZM30.581-291.3c-.146-.1-1.134-1.389-1.269-1.336a21.256,21.256,0,0,0-4.953,3.077,26.987,26.987,0,0,1,2.1,10.408c1.631.763,3.064,1.863,5.278,1.978-.256-1.812-.49-3.429-.635-5.136-.556-.234-1.354.011-1.875-.073,0-.627.795-.275.862-.7.05-.319-.44-.343-.28-.846.407.148.621.475,1.055.6.4-.868-.006-2.4.052-3.128.011-.136.068-.754.373-.646.27.1-.015,1.644.014,2.33a3.6,3.6,0,0,0,.18,1.641,61.126,61.126,0,0,1,6.627-.543,16.03,16.03,0,0,1-1.777-.8c-.36-.2-1.493-.624-1.6-.966-.166-.544.434-.834.537-1.3-1.08.589-1.29-.564-1.546-1.382a10.741,10.741,0,0,1-.42-1.72,18.607,18.607,0,0,1-2.725-1.461Zm10.825-1.181c1.489-.722,1.758,2.7,1.174,3.8.09.329.4.455.527.75-.831,1.489-1.754,2.879-2.6,4.35.631-.393,1.532-.07,2.274-.364.271-.107.468-.728.673-1.225a26.652,26.652,0,0,0,1.422-4.4,5.562,5.562,0,0,0,.186-1.21c-.065-.474-.708-.825-1.035-1.118-.6-.541-.982-1.017-1.61-1.523C42.161-293.04,41.614-292.787,41.406-292.481ZM27.175-305.689c-.71.781-.561,2.244-.475,3.285a1.907,1.907,0,0,1,2.969,1.436c.612-.016.229-.765.118-1.247-.362-1.575.61-3.287.044-4.727A3.893,3.893,0,0,0,27.175-305.689Zm5.078-4.532c-1.607.455-3.666,1.623-4.326,3.066.511-.074.866-.332,1.37-.364a3.37,3.37,0,0,0,.659.025c.437-.108.8-1.087,1.134-1.451s.707-.508.971-.832c.17-.082.42-.076.43-.331C32.418-310.186,32.341-310.246,32.253-310.221Zm8.363.428c-1.668-.941-4.49-1.649-6.264-.764-1.431.714-3.366,1.894-4.026,3.391.616,1.444-.183,2.767-.234,4.233-.027.78.367,1.461.4,2.31-.211.348-.855.391-1.3.367-.15-.751-.413-1.6-1.186-1.68a1.8,1.8,0,0,0-1.945,1.733c-.059,1.113.855,2.958,2.15,2.83.5-.049.623-.551,1.169-.546.3.59-.456.775-.533,1.2a3.387,3.387,0,0,0,.11.734,10.021,10.021,0,0,0,1.276,2.97c.655.939,1.943,1.08,3.327,1.172.247-.533,1.159-.489,1.752-.35a5.869,5.869,0,0,1-1.921-1.57,3.943,3.943,0,0,1-1.3-2.345c1.19,1.651,2.173,3.093,4.337,3.819,1.637.549,3.55-.252,4.808-1.135a5.525,5.525,0,0,0,1.2-1.483,12.573,12.573,0,0,0,1.894-7.611,8.446,8.446,0,0,0-.438-3.042c-.4-.8-1.751-1.519-2.542-.794-.147-.78.658-1.262,1.6-.981A8.939,8.939,0,0,0,40.616-309.793Zm3.107,25.711c1.3-.648,3.738-1.744,4.555,0a14.805,14.805,0,0,1,.811,2.4c.221.937-.239,2.907-1.2,3.222a5.718,5.718,0,0,1-2.869.055,1.563,1.563,0,0,1-.349-.458,3.958,3.958,0,0,0-2,.34c.055.541-.311.628-.655.74-.254,1.009.509,2.326.326,3.246-.13.655-.937.757-1.529.879a5.034,5.034,0,0,0,.066.976,1.479,1.479,0,0,1-1.319.853,16.571,16.571,0,0,1-6.594-.325c-.509-1.247-.909-2.765-1.333-4.189-1.777.19-3.215-.767-4.57-1.394-.469-.218-1.118-.337-1.294-.711a6.4,6.4,0,0,1-.143-1.709,25.972,25.972,0,0,0-.641-5c-.2-.768-.544-1.446-.785-2.186a15.775,15.775,0,0,1-.714-2.218c-.151-1.014.8-1.07,1.415-1.51.944-.68,1.685-1.055,2.707-1.669a6.167,6.167,0,0,0,1.32-.853c.206-.42-.354-1.012-.5-1.341a4.032,4.032,0,0,1-.395-1.476,2.847,2.847,0,0,1-1.9-1.221,4.681,4.681,0,0,1-.538-4.054c.044-.106.264-.313.3-.475a5.492,5.492,0,0,0-.132-1.083c-.059-1.742.295-3.243,1.467-3.768.476-1.9,2.18-2.527,3.785-3.469a11.9,11.9,0,0,1,1.945-.829c2.451-.9,6.21-.732,8.244.806a11.069,11.069,0,0,1,2.734,3.027c1.3,2.632,1.21,7.032.3,10.234a10.3,10.3,0,0,1-.548,1.578c-.173.361-.71,1.082-.645,1.4s1.225,1.208,1.474,1.448c.447.431,1.3,1,1.365,1.548a5.48,5.48,0,0,1-.422,1.931c-.558,1.865-1.1,3.59-1.734,5.253" transform="translate(-20.448 311.855)"/><path class="h" d="M112.867-197.41c.071-.094.459-.237,1,.025,0,0-.645.107-.591,1.182l-.269-.054s-.278-.974-.144-1.153" transform="translate(-98.286 212.271)"/><path class="q" d="M145.653-126.914a.3.3,0,0,1-.3.3.3.3,0,0,1-.3-.3.3.3,0,0,1,.3-.3.3.3,0,0,1,.3.3" transform="translate(-126.363 151.012)"/><path class="q" d="M147.945-116.289a.3.3,0,0,1-.3.3.3.3,0,0,1-.3-.3.3.3,0,0,1,.3-.3.3.3,0,0,1,.3.3" transform="translate(-128.359 141.756)"/></g><text class="r" transform="translate(37.335 -287.703)"><tspan x="0" y="0">Jenkins</tspan></text></g></svg>