<svg xmlns="http://www.w3.org/2000/svg" width="121.443" height="40" viewBox="0 0 121.443 40"><defs><style>.a{fill:#fff;}.a,.b{fill-rule:evenodd;}.b{fill:#f9a51a;}</style></defs><path class="a" d="M64.065,23.364c-.869,0-1.332-.695-1.332-1.651V14.387h2.838V11.723H62.733V7.9h-3.04v3.822H57.376v2.664h2.317v8.079a3.225,3.225,0,0,0,3.591,3.591,4.012,4.012,0,0,0,2.867-.9l-.724-2.288a1.96,1.96,0,0,1-1.361.493m14.189,2.345h3.04v-9.9c0-2.867-1.505-4.431-4.517-4.431a6.69,6.69,0,0,0-4.952,2.259V6.4h-3.04V25.709h3.04V15.952a4.7,4.7,0,0,1,3.591-1.883c1.708,0,2.837.666,2.837,2.838Zm10.483-11.93V11.723H85.7V25.709h3.04V16.183a4.827,4.827,0,0,1,3.59-1.853,4.481,4.481,0,0,1,.956.087V11.4a5.971,5.971,0,0,0-4.546,2.375" transform="translate(-10.49 -1.169)"/><path class="a" d="M85.717,24.54h3.04V10.554h-3.04Zm1.505-16.3A1.882,1.882,0,1,0,85.34,6.355a1.879,1.879,0,0,0,1.882,1.882m15.318,2.316L98.458,21.037,94.375,10.554H91.132l5.7,13.986h3.273l5.7-13.986Zm8.073,5.849a3.859,3.859,0,0,1,3.939-3.707,3.74,3.74,0,0,1,3.937,3.707Zm10.83,1.419c0-4.4-2.693-7.615-6.892-7.615a7.069,7.069,0,0,0-7.094,7.326,7.031,7.031,0,0,0,7.326,7.355,8.153,8.153,0,0,0,5.675-2.027l-1.39-2A5.918,5.918,0,0,1,115.1,22.4a4.237,4.237,0,0,1-4.46-3.851h10.8v-.724ZM51.059,34.658h-1.3v-4.7h1.3a2.349,2.349,0,0,1,0,4.7m0-5.131H49.281v5.565h1.777a2.783,2.783,0,1,0,0-5.565m5.89,3.763,1.326-3.3,1.335,3.3Zm1.035-3.763-2.277,5.565h.534l.559-1.368H59.76l.559,1.368h.534l-2.277-5.565h-.592Zm4.255.434h1.819v5.131h.484V29.961h1.819v-.433H62.239Zm6.75,3.329,1.326-3.3,1.335,3.3H68.989Zm1.035-3.763-2.277,5.565h.534l.559-1.368H71.8l.559,1.368h.534l-2.277-5.565h-.592Zm10.755,2.42c-.76-.2-1.452-.392-1.452-1.051,0-.6.559-1.026,1.3-1.026a1.991,1.991,0,0,1,1.593.7l.317-.351a2.392,2.392,0,0,0-1.886-.784c-1.009,0-1.826.575-1.826,1.485,0,1.026.934,1.277,1.81,1.519.784.208,1.526.425,1.526,1.209,0,.476-.325,1.11-1.468,1.11a2.268,2.268,0,0,1-1.735-.809l-.309.358a2.559,2.559,0,0,0,2.036.885c1.5,0,1.978-.86,1.978-1.577,0-1.126-.985-1.41-1.885-1.669m7.167-2.077a2.03,2.03,0,0,1,1.643.809l.4-.258a2.517,2.517,0,0,0-2.043-.985,2.879,2.879,0,0,0,0,5.756,2.5,2.5,0,0,0,2.044-.992l-.4-.251a2.027,2.027,0,0,1-1.643.809,2.448,2.448,0,0,1,0-4.888M92.5,35.092h.476V29.527H92.5Zm3.4,0h3.53v-.434H96.38v-2.2h3v-.434h-3V29.961h3.054v-.433H95.9Zm10.221-.826-3.488-4.739h-.484v5.565h.476V30.287l3.5,4.805h.467V29.527h-.476Zm6-4.4a2.029,2.029,0,0,1,1.643.809l.4-.258a2.517,2.517,0,0,0-2.043-.985,2.879,2.879,0,0,0,0,5.756,2.5,2.5,0,0,0,2.044-.992l-.4-.251a2.027,2.027,0,0,1-1.643.809,2.448,2.448,0,0,1,0-4.888m4.556,5.223h3.529v-.434h-3.054v-2.2h2.995v-.434h-2.995V29.961h3.054v-.433H116.68ZM22.086,0a2.454,2.454,0,0,0-2.454,2.454V30.92a2.454,2.454,0,0,0,4.908,0V2.454A2.454,2.454,0,0,0,22.086,0M2.454,13.251A2.454,2.454,0,0,0,0,15.706v11.78a2.454,2.454,0,0,0,4.908,0V15.705a2.454,2.454,0,0,0-2.454-2.454M31.9,18.405a2.454,2.454,0,0,0-2.454,2.454V32.638a2.454,2.454,0,0,0,4.908,0V20.859A2.454,2.454,0,0,0,31.9,18.405M12.27,19.877a2.454,2.454,0,0,0-2.454,2.454V37.546a2.454,2.454,0,0,0,4.908,0V22.331a2.454,2.454,0,0,0-2.454-2.454"/><path class="b" d="M14.466,4.2A2.454,2.454,0,0,1,16.92,6.658V15a2.454,2.454,0,0,1-4.908,0V6.658A2.454,2.454,0,0,1,14.466,4.2" transform="translate(-2.196 -0.769)"/></svg>